<?xml version="1.0" standalone="no"?>
<!DOCTYPE svg PUBLIC "-//W3C//DTD SVG 20010904//EN" "http://www.w3.org/TR/2001/REC-SVG-20010904/DTD/svg10.dtd">
<svg version="1.0" xmlns="http://www.w3.org/2000/svg" width="512.000000pt" height="512.000000pt" viewBox="0 0 512.000000 512.000000" preserveAspectRatio="xMidYMid meet">
    <metadata>
Created by potrace 1.14, written by Peter Selinger 2001-2017
</metadata>
    <g transform="translate(0.000000,512.000000) scale(0.100000,-0.100000)" fill="#000000" stroke="none">
        <path d="M2379 5095 c-2 -1 -33 -6 -69 -9 -125 -11 -157 -15 -236 -31 -769
-155 -1394 -617 -1767 -1305 -69 -128 -182 -408 -202 -500 -2 -8 -10 -42 -18
-75 -17 -67 -43 -199 -52 -266 -3 -24 -9 -75 -14 -114 -10 -76 -7 -436 4 -525
35 -293 124 -588 256 -853 57 -113 192 -335 239 -389 29 -35 53 -65 83 -104
17 -24 91 -101 162 -172 320 -315 663 -516 1094 -642 41 -12 81 -23 90 -25 9
-2 50 -10 91 -19 175 -36 313 -49 515 -50 457 -1 889 118 1292 355 317 188
605 463 822 786 68 102 173 297 222 413 72 172 148 441 165 581 3 30 8 57 10
60 25 43 24 603 -1 699 -2 8 -7 35 -10 60 -38 274 -177 650 -337 911 -267 437
-671 791 -1143 1001 -226 101 -440 159 -745 203 -48 7 -445 16 -451 10z" />
    </g>
</svg>